<svg width="15" height="14" viewBox="0 0 15 14" fill="none" xmlns="http://www.w3.org/2000/svg">
<path d="M6.66657 1.16668C6.66657 0.706439 7.03967 0.333343 7.4999 0.333344C7.96014 0.333344 8.33324 0.70644 8.33324 1.16668L8.33324 12.8333C8.33324 13.2936 7.96015 13.6667 7.49991 13.6667C7.03967 13.6667 6.66658 13.2936 6.66658 12.8333L6.66657 1.16668Z" fill="currentColor"/>
<path d="M13.3333 6.16667C13.7935 6.16667 14.1666 6.53977 14.1666 7.00001C14.1666 7.46024 13.7935 7.83334 13.3333 7.83334L1.66659 7.83333C1.20635 7.83333 0.833252 7.46024 0.833252 7C0.833252 6.53976 1.20635 6.16666 1.66659 6.16667L13.3333 6.16667Z" fill="currentColor"/>
</svg>
