
<svg width="24" height="24" viewBox="0 0 24 24" fill="none" xmlns="http://www.w3.org/2000/svg">
<g clip-path="url(#clip0_1335_2601)">
<path d="M21.7945 10.4109L17.2185 14.3903C17.0525 14.5347 16.9796 14.759 17.0291 14.9734L18.392 20.8825C18.5101 21.3944 17.9556 21.7973 17.5052 21.5268L12.3066 18.4045C12.1179 18.2912 11.8821 18.2912 11.6934 18.4045L6.49477 21.5268C6.04439 21.7973 5.48991 21.3944 5.60797 20.8825L6.65203 16.356L11.5722 12.9841C11.6217 12.7696 11.5488 12.5453 11.3827 12.4009L5.49381 13.2705L2.20553 10.4109C1.80906 10.0661 2.02093 9.41428 2.54429 9.36838L8.58527 8.83864C8.8045 8.81942 8.99532 8.68079 9.08134 8.47822L11.4519 2.89661C11.6573 2.41304 12.3427 2.41304 12.5481 2.89661L14.9187 8.47822C15.0047 8.68079 15.1955 8.81942 15.4147 8.83864L21.4557 9.36838C21.9791 9.41428 22.191 10.0661 21.7945 10.4109Z" stroke="#DB9303" stroke-linecap="round" stroke-linejoin="round"/>
<path d="M21.7253 9.45835C21.6489 9.40963 21.5583 9.37736 21.4557 9.36838L15.4147 8.83864C15.1955 8.81942 15.0047 8.68079 14.9187 8.47822L12.5481 2.89661C12.3427 2.41304 11.6573 2.41304 11.4519 2.89661L9.08134 8.47822C8.99532 8.68079 8.8045 8.81942 8.58527 8.83864L2.54429 9.36838C2.02093 9.41428 1.80906 10.0661 2.20553 10.4109C2.20553 10.4109 3.17412 11.2532 4.05762 12.0215" stroke="#F2A203" stroke-linecap="round" stroke-linejoin="round"/>
<path d="M21.7945 10.4109L17.2185 14.3903C17.0525 14.5347 16.9796 14.759 17.0291 14.9734L18.392 20.8825C18.5101 21.3944 17.9556 21.7973 17.5052 21.5268L12.3066 18.4045C12.1179 18.2912 11.8821 18.2912 11.6934 18.4045L6.49477 21.5268C6.04439 21.7973 5.48991 21.3944 5.60797 20.8825L6.65181 16.3571L11.5722 12.9435C11.8477 12.7632 11.7226 12.3302 11.3827 12.3603L5.47936 13.2579L2.20553 10.4109C1.80906 10.0661 2.02093 9.41428 2.54429 9.36838L8.58527 8.83864C8.8045 8.81942 8.99532 8.68079 9.08134 8.47822L11.4519 2.89661C11.6573 2.41304 12.3427 2.41304 12.5481 2.89661L14.9187 8.47822C15.0047 8.68079 15.1955 8.81942 15.4147 8.83864L21.4557 9.36838C21.9791 9.41428 22.191 10.0661 21.7945 10.4109Z" fill="url(#paint0_linear_1335_2601)"/>
<path d="M20.0856 10.6906L16.3333 13.9537C16.1972 14.0721 16.1374 14.256 16.178 14.4319L17.2956 19.2773C17.3924 19.697 16.9377 20.0274 16.5684 19.8056L12.3055 17.2454C12.1508 17.1525 11.9575 17.1525 11.8027 17.2454L7.53981 19.8056C7.1705 20.0274 6.71582 19.697 6.81263 19.2773L7.36558 16.8799L12.518 13.1192C13.2857 12.4758 12.8526 11.5149 11.8619 11.6531L5.88544 12.3105L4.02267 10.6906C3.69757 10.4079 3.87126 9.87337 4.30041 9.83573L9.25406 9.40134C9.43383 9.38559 9.5903 9.27191 9.66084 9.1058L11.6047 4.52884C11.7731 4.13231 12.3351 4.13231 12.5035 4.52884L14.4474 9.1058C14.5179 9.27191 14.6744 9.38559 14.8542 9.40134L19.8078 9.83573C20.237 9.87337 20.4107 10.4079 20.0856 10.6906Z" fill="url(#paint1_radial_1335_2601)"/>
</g>
<defs>
<linearGradient id="paint0_linear_1335_2601" x1="11.9889" y1="2.67218" x2="11.9889" y2="17.9335" gradientUnits="userSpaceOnUse">
<stop stop-color="#F8CC00"/>
<stop offset="0.5" stop-color="#F8C100"/>
<stop offset="1" stop-color="#F8B500"/>
</linearGradient>
<radialGradient id="paint1_radial_1335_2601" cx="0" cy="0" r="1" gradientUnits="userSpaceOnUse" gradientTransform="translate(11.9576 0.00110108) scale(14.6408 14.6408)">
<stop stop-color="white"/>
<stop offset="0.5" stop-color="#FFF180"/>
<stop offset="1" stop-color="#FFE400"/>
</radialGradient>
<clipPath id="clip0_1335_2601">
<rect width="24" height="24" fill="white"/>
</clipPath>
</defs>
</svg>
